{"title":"Left Behind - La profezia (2014) 480p x264 AAC ITA SUB ITA ENG","uid":12790272,"size":1000397603,"categoryP":"video","categoryS":"hd___movies","magnet":"?xt=urn:btih:2b1763b1a4a61aaddde3a1068217897b090922d7&amp;dn=Left+Behind+-+La+profezia+%282014%29+480p+x264+AAC+ITA+SUB+ITA+ENG&amp;tr=udp%3A%2F%2Ftracker.leechers-paradise.org%3A6969&amp;tr=udp%3A%2F%2Fzer0day.ch%3A1337&amp;tr=udp%3A%2F%2Fopen.demonii.com%3A1337&amp;tr=udp%3A%2F%2Ftracker.coppersurfer.tk%3A6969&amp;tr=udp%3A%2F%2Fexodus.desync.com%3A6969","seeders":0,"leechers":1,"uploader":"xtron197777","files":1,"time":1447905772,"description":"Left Behind - La Profezia (2014)\r\n \nhttp://i.imgur.com/FymhKrE.jpg?1\r\n\r\n-: Cast :-\r\n\r\nNicolas Cage: Rayford Steele\r\nCassi Thomson: Chloe Steele\r\nChad Michael Murray: Buck Williams\r\nLea Thompson: Irene Steele\r\nNicky Whelan: Hattie Durham\r\nQuinton Aaron: Simon\r\nLaura Cayouette: Vicina\r\nJordin Sparks: Shasta Carvell\r\nMartin Klebba: Melvin Weir\r\nLolo Jones: Lori\r\n\r\n-: Trama :-\r\n\r\nChloe, figlia di genitori divorziati, si trova in aeroporto per incontrare suo padre Rayford, un pilota di Boeing 747. Per caso stringe amicizia con Buck, che sta per prendere lo stesso volo di Rayford.\r\n\r\nDurante il volo, e mentre Chloe è in compagnia del fratello più piccolo Ravmie, milioni di persone in tutto il mondo scompaiono all'improvviso senza lasciare traccia. Scoppia il caos generale, i veicoli sbandano e molte persone si trasformano in criminali. Anche nell'aereo il comandante e tanta altra gente sono scomparsi.\r\n\r\nTra gli scomparsi ci sono anche Ravmie e la mamma, così che Chloe (pensando di aver perso anche suo padre in seguito ad uno schianto) valuta il suicidio. Fortunatamente però riesce a mettersi in contatto suo padre e con Buck, i quali sono convinti che si sia verificato il Rapimento della Chiesa descritto nella Bibbia.\r\n\r\n-: Info :-\r\nGeneral \r\nFormat profile : Base Media \r\nCodec ID : isom \r\nFile size : 954 MiB \r\nDuration : 1h 50mn \r\nOverall bit rate mode : Variable \r\nOverall bit rate : 1 212 Kbps \r\nEncoded date : UTC 2015-11-19 02:55:30 \r\nTagged date : UTC 2015-11-19 02:55:30 \r\nWriting application : Lavf57.3.100 \r\n\r\nVideo \r\nID : 1 \r\nFormat : AVC \r\nFormat/Info : Advanced Video Codec \r\nFormat profile :    \r\nFormat settings, CABAC : Yes \r\nFormat settings, ReFrames : 5 frames \r\nCodec ID : avc1 \r\nCodec ID/Info : Advanced Video Coding \r\nDuration : 1h 50mn \r\nBit rate : 1 032 Kbps \r\nWidth : 848 pixels \r\nHeight : 354 pixels \r\nDisplay aspect ratio : 2.40:1 \r\nOriginal display aspect ratio : 2.40:1 \r\nFrame rate mode : Variable \r\nFrame rate : 23.976 fps \r\nMinimum frame rate : 23.564 fps \r\nMaximum frame rate : 24.390 fps \r\nColor space : YUV \r\nChroma subsampling : 4:2:0 \r\nBit depth : 8 bits \r\nScan type : Progressive \r\nBits/(Pixel*Frame) : 0.143 \r\nStream size : 848 MiB (89%) \r\nWriting library : x264 core 148 r2638 7599210 \r\nEncoding settings : cabac=1 / ref=6 / deblock=1:-1:-1 / analyse=0x3:0x133 / me=umh / subme=10 / psy=1 / psy_rd=1.00:0.15 / mixed_ref=1 / me_range=24 / chroma_me=1 / trellis=2 / 8x8dct=1 / cqm=0 / deadzone=21,11 / fast_pskip=1 / chroma_qp_offset=-3 / threads=11 / lookahead_threads=1 / sliced_threads=0 / nr=0 / decimate=1 / interlaced=0 / bluray_compat=1 / constrained_intra=0 / bframes=3 / b_pyramid=1 / b_adapt=2 / b_bias=0 / direct=3 / weightb=1 / open_gop=0 / weightp=1 / keyint=250 / keyint_min=1 / scenecut=40 / intra_refresh=0 / rc_lookahead=60 / rc=2pass / mbtree=1 / bitrate=1032 / qpmin=0 / qpmax=69 / qpstep=4 / ip_ratio=1.40 / aq=3:1.0 / 0 \r\nEncoded date : UTC 2015-11-19 02:55:30 \r\nTagged date : UTC 2015-11-19 02:55:30 \r\nColor range : Limited \r\nMatrix coefficients : BT.709 \r\n\r\nAudio \r\nID : 2 \r\nFormat : AAC \r\nFormat/Info : Advanced Audio Codec \r\nFormat profile : LC \r\nCodec ID : 40 \r\nDuration : 1h 50mn \r\nDuration_LastFrame : -11ms \r\nBit rate mode : Constant \r\nBit rate : 128 Kbps \r\nChannel(s) : 2 channels \r\nChannel positions : Front: L R \r\nSampling rate : 48.0 KHz \r\nCompression mode : Lossy \r\nStream size : 101 MiB (11%) \r\nLanguage : Italian \r\nEncoded date : UTC 2015-11-19 02:55:30 \r\nTagged date : UTC 2015-11-19 02:55:30 \r\n\r\nText #1 \r\nID : 3 \r\nFormat : Timed Text \r\nMuxing mode : sbtl \r\nCodec ID : tx3g \r\nDuration : 1h 32mn \r\nBit rate mode : Variable \r\nBit rate : 0 bps \r\nStream size : 102 Bytes (0%) \r\nLanguage : Italian \r\nEncoded date : UTC 2015-11-19 02:55:30 \r\nTagged date : UTC 2015-11-19 02:55:30 \r\n\r\nText #2 \r\nID : 4 \r\nFormat : Timed Text \r\nMuxing mode : sbtl \r\nCodec ID : tx3g \r\nDuration : 1h 44mn \r\nBit rate mode : Variable \r\nBit rate : 62 bps \r\nStream size : 47.2 KiB (0%) \r\nLanguage : Italian \r\nEncoded date : UTC 2015-11-19 02:55:30 \r\nTagged date : UTC 2015-11-19 02:55:30","torrent":{"xt":"urn:btih:2b1763b1a4a61aaddde3a1068217897b090922d7","amp;dn":"Left+Behind+-+La+profezia+%282014%29+480p+x264+AAC+ITA+SUB+ITA+ENG","amp;tr":["udp%3A%2F%2Ftracker.leechers-paradise.org%3A6969","udp%3A%2F%2Fzer0day.ch%3A1337","udp%3A%2F%2Fopen.demonii.com%3A1337","udp%3A%2F%2Ftracker.coppersurfer.tk%3A6969","udp%3A%2F%2Fexodus.desync.com%3A6969"],"infoHash":"2b1763b1a4a61aaddde3a1068217897b090922d7","infoHashBuffer":{"type":"Buffer","data":[43,23,99,177,164,166,26,173,221,227,161,6,130,23,137,123,9,9,34,215]},"announce":[],"urlList":[]}}